<svg xmlns="http://www.w3.org/2000/svg" width="85" height="85" viewBox="0 0 85 85">
  <defs>
    <style>
      .cls-1, .cls-4 {
        fill: #58bece;
      }

      .cls-2 {
        fill: none;
      }

      .cls-3, .cls-4 {
        stroke: none;
      }
    </style>
  </defs>
  <g id="accessibility-icon" transform="translate(-685 -6408)">
    <path id="wheelchair-solid" class="cls-1" d="M49.918,38.807l1.432,2.884a1.61,1.61,0,0,1-.726,2.158l-6.587,3.309a3.221,3.221,0,0,1-4.346-1.515L33.374,32.2H19.319a3.22,3.22,0,0,1-3.188-2.765C12.722,5.565,12.918,7.048,12.88,6.44a6.44,6.44,0,1,1,7.382,6.37l.47,3.289H33.809a1.61,1.61,0,0,1,1.61,1.61v3.22a1.61,1.61,0,0,1-1.61,1.61H21.652l.46,3.22H35.419a3.22,3.22,0,0,1,2.914,1.851L44.12,39.927l3.64-1.846a1.61,1.61,0,0,1,2.158.726ZM31.329,35.419H28.863A11.269,11.269,0,1,1,12.107,24.033c-.374-2.613-.689-4.816-.955-6.675A17.709,17.709,0,1,0,33.92,40.934Z" transform="translate(702 6425)"/>
    <g id="Path_86" data-name="Path 86" class="cls-2" transform="translate(685 6408)">
      <path class="cls-3" d="M42.5,0A42.5,42.5,0,1,1,0,42.5,42.5,42.5,0,0,1,42.5,0Z"/>
      <path class="cls-4" d="M 42.5 7 C 22.92523574829102 7 7 22.92523574829102 7 42.5 C 7 62.07476425170898 22.92523574829102 78 42.5 78 C 62.07476425170898 78 78 62.07476425170898 78 42.5 C 78 22.92523574829102 62.07476425170898 7 42.5 7 M 42.5 0 C 65.97209167480469 0 85 19.02789306640625 85 42.5 C 85 65.97209167480469 65.97209167480469 85 42.5 85 C 19.02789306640625 85 0 65.97209167480469 0 42.5 C 0 19.02789306640625 19.02789306640625 0 42.5 0 Z"/>
    </g>
  </g>
</svg>
