<svg xmlns="http://www.w3.org/2000/svg" width="85" height="85" viewBox="0 0 85 85">
  <defs>
    <style>
      .cls-1 {
        fill: #016c80;
      }
    </style>
  </defs>
  <path id="clock-regular" class="cls-1" d="M50.5,8A42.5,42.5,0,1,0,93,50.5,42.493,42.493,0,0,0,50.5,8Zm0,76.774A34.274,34.274,0,1,1,84.774,50.5,34.265,34.265,0,0,1,50.5,84.774ZM61.091,66.883,46.541,56.309a2.07,2.07,0,0,1-.84-1.662V26.508a2.062,2.062,0,0,1,2.056-2.056h5.484A2.062,2.062,0,0,1,55.3,26.508V50.791L66.746,59.12A2.055,2.055,0,0,1,67.192,62L63.97,66.438a2.071,2.071,0,0,1-2.879.446Z" transform="translate(-8 -8)"/>
</svg>
