<svg xmlns="http://www.w3.org/2000/svg" width="85" height="85" viewBox="0 0 85 85">
  <defs>
    <style>
      .cls-1 {
        fill: none;
      }

      .cls-2, .cls-4 {
        fill: #016c80;
      }

      .cls-3, .cls-4 {
        stroke: none;
      }
    </style>
  </defs>
  <g id="food_drink-icon" transform="translate(-1149 -6408)">
    <g id="Path_87" data-name="Path 87" class="cls-1" transform="translate(1149 6408)">
      <path class="cls-3" d="M42.5,0A42.5,42.5,0,1,1,0,42.5,42.5,42.5,0,0,1,42.5,0Z"/>
      <path class="cls-4" d="M 42.5 7 C 22.92523574829102 7 7 22.92523574829102 7 42.5 C 7 62.07476425170898 22.92523574829102 78 42.5 78 C 62.07476425170898 78 78 62.07476425170898 78 42.5 C 78 22.92523574829102 62.07476425170898 7 42.5 7 M 42.5 0 C 65.97209167480469 0 85 19.02789306640625 85 42.5 C 85 65.97209167480469 65.97209167480469 85 42.5 85 C 19.02789306640625 85 0 65.97209167480469 0 42.5 C 0 19.02789306640625 19.02789306640625 0 42.5 0 Z"/>
    </g>
    <path id="mug-hot-solid" class="cls-2" d="M10.91,12.575a1.393,1.393,0,0,0,1.373,1.159H13.7a1.39,1.39,0,0,0,1.4-1.545,11.221,11.221,0,0,0-3.142-6.412A8.14,8.14,0,0,1,9.691,1.185,1.382,1.382,0,0,0,8.309,0H6.9A1.4,1.4,0,0,0,5.5,1.545,12.477,12.477,0,0,0,8.987,8.789,6.972,6.972,0,0,1,10.91,12.575Zm9.613,0A1.393,1.393,0,0,0,21.9,13.733h1.416a1.39,1.39,0,0,0,1.4-1.545A11.22,11.22,0,0,0,21.57,5.777,8.14,8.14,0,0,1,19.3,1.185,1.382,1.382,0,0,0,17.922,0H16.515a1.4,1.4,0,0,0-1.4,1.545A12.477,12.477,0,0,0,18.6,8.789,6.972,6.972,0,0,1,20.523,12.575ZM34.334,16.48H2.747A2.744,2.744,0,0,0,0,19.227v16.48a8.242,8.242,0,0,0,8.24,8.24H24.72a8.242,8.242,0,0,0,8.24-8.24h1.373a9.613,9.613,0,1,0,0-19.227Zm0,13.733H32.96v-8.24h1.373a4.12,4.12,0,1,1,0,8.24Z" transform="translate(1170 6429)"/>
  </g>
</svg>
