<svg xmlns="http://www.w3.org/2000/svg" width="85" height="85" viewBox="0 0 85 85">
  <defs>
    <style>
      .cls-1 {
        fill: none;
      }

      .cls-2 {
        fill: #4dc6d7;
      }

      .cls-3, .cls-4 {
        stroke: none;
      }

      .cls-4 {
        fill: #58bece;
      }
    </style>
  </defs>
  <g id="shop-icon" transform="translate(-1618 -6408)">
    <g id="Path_88" data-name="Path 88" class="cls-1" transform="translate(1618 6408)">
      <path class="cls-3" d="M42.5,0A42.5,42.5,0,1,1,0,42.5,42.5,42.5,0,0,1,42.5,0Z"/>
      <path class="cls-4" d="M 42.5 7 C 22.92523574829102 7 7 22.92523574829102 7 42.5 C 7 62.07476425170898 22.92523574829102 78 42.5 78 C 62.07476425170898 78 78 62.07476425170898 78 42.5 C 78 22.92523574829102 62.07476425170898 7 42.5 7 M 42.5 0 C 65.97209167480469 0 85 19.02789306640625 85 42.5 C 85 65.97209167480469 65.97209167480469 85 42.5 85 C 19.02789306640625 85 0 65.97209167480469 0 42.5 C 0 19.02789306640625 19.02789306640625 0 42.5 0 Z"/>
    </g>
    <path id="shopping-bag-solid" class="cls-2" d="M31.919,14.509v-2.9a11.607,11.607,0,1,0-23.214,0v2.9H0V39.173a7.254,7.254,0,0,0,7.254,7.254H33.37a7.254,7.254,0,0,0,7.254-7.254V14.509Zm-17.41-2.9a5.8,5.8,0,1,1,11.607,0v2.9H14.509ZM29.017,22.488a2.176,2.176,0,1,1,2.176-2.176A2.176,2.176,0,0,1,29.017,22.488Zm-17.41,0a2.176,2.176,0,1,1,2.176-2.176A2.176,2.176,0,0,1,11.607,22.488Z" transform="translate(1640 6427)"/>
  </g>
</svg>
